<svg xmlns="http://www.w3.org/2000/svg" width="320" height="240" viewBox="0 0 320 240" fill="none">
  <defs>
    <linearGradient id="bg" x1="0" y1="0" x2="1" y2="1">
      <stop offset="0%" stop-color="#FED7AA"/>
      <stop offset="100%" stop-color="#FB923C"/>
    </linearGradient>
  </defs>
  <rect width="320" height="240" rx="24" fill="url(#bg)"/>
  <g id="shadow" opacity="0.18">
    <ellipse cx="160" cy="176" rx="78" ry="16" fill="#4C1D95"/>
  </g>
  <g id="main">
    <path d="M100 150c0-28 26-52 60-52 34 0 60 24 60 52-32 10-88 10-120 0z" fill="#F97316"/>
    <path d="M140 90c0-16 10-28 24-28 14 0 24 12 24 28" stroke="#FDBA74" stroke-width="8" stroke-linecap="round"/>
    <path d="M122 84c0-14 10-24 22-24 12 0 22 10 22 24" stroke="#FED7AA" stroke-width="6" stroke-linecap="round"/>
  </g>
</svg>
